<?xml version="1.0" encoding="UTF-8"?>
<svg xmlns="http://www.w3.org/2000/svg" xmlns:xlink="http://www.w3.org/1999/xlink" width="512" height="512" viewBox="0 0 60 60" version="1.1"><!-- Generator: Sketch 51.3 (57544) - http://www.bohemiancoding.com/sketch --><title>006 - Moving Van</title><desc>Created with Sketch.</desc><defs/><g id="Page-1" stroke="none" stroke-width="1" fill="none" fill-rule="evenodd"><g id="006---Moving-Van" fill="#000000" fill-rule="nonzero"><path d="M3,54 L5,54 L5,57 C5,58.6568542 6.34314575,60 8,60 L12,60 C13.6568542,60 15,58.6568542 15,57 L15,54 L45,54 L45,57 C45,58.6568542 46.3431458,60 48,60 L52,60 C53.6568542,60 55,58.6568542 55,57 L55,54 L57,54 C58.4594373,54.0027654 59.7080809,52.9525119 59.9553873,51.514178 C60.2026937,50.0758441 59.3765475,48.6688523 58,48.184 L58,3 C58,1.34314575 56.6568542,1.01453063e-16 55,0 L5,0 C3.34314575,-1.01453063e-16 2,1.34314575 2,3 L2,48.184 C0.623452518,48.6688523 -0.202693696,50.0758441 0.044612677,51.514178 C0.29191905,52.9525119 1.54056274,54.0027654 3,54 Z M13,57 C13,57.5522847 12.5522847,58 12,58 L8,58 C7.44771525,58 7,57.5522847 7,57 L7,54 L13,54 L13,57 Z M53,57 C53,57.5522847 52.5522847,58 52,58 L48,58 C47.4477153,58 47,57.5522847 47,57 L47,54 L53,54 L53,57 Z M4,3 C4,2.44771525 4.44771525,2 5,2 L55,2 C55.5522847,2 56,2.44771525 56,3 L56,48 L54,48 L54,6 C54,4.8954305 53.1045695,4 52,4 L8,4 C6.8954305,4 6,4.8954305 6,6 L6,48 L4,48 L4,3 Z M44,34 C45.1045695,34 46,34.8954305 46,36 L40,36 C40,34.8954305 40.8954305,34 42,34 L44,34 Z M42,38 L44,38 L44,40.382 L43.447,40.105 C43.1655892,39.9643786 42.8344108,39.9643786 42.553,40.105 L42,40.382 L42,38 Z M39,38 L40,38 L40,42 C39.9980979,42.3475069 40.1767435,42.6710847 40.4718336,42.8546237 C40.7669236,43.0381628 41.1361412,43.0553431 41.447,42.9 L43,42.118 L44.553,42.895 C44.8630616,43.0499383 45.2312442,43.0332634 45.5260309,42.8509316 C45.8208177,42.6685998 46.0001616,42.346618 46,42 L46,38 L48,38 L48,48 L38,48 L38,38 L39,38 Z M48,36 C48,33.790861 46.209139,32 44,32 L44,29 L48,29 C48.3139395,29.0001745 48.6097382,28.8529098 48.7988245,28.6023017 C48.9879107,28.3516936 49.0483334,28.0268353 48.962,27.725 L47.169,21.452 C46.9221817,20.5942432 46.1385579,20.0025522 45.246,20 L40.754,20 C39.8621112,20.0026269 39.0788428,20.5932349 38.831,21.45 L37.038,27.725 C36.9516666,28.0268353 37.0120893,28.3516936 37.2011755,28.6023017 C37.3902618,28.8529098 37.6860605,29.0001745 38,29 L42,29 L42,32 C39.790861,32 38,33.790861 38,36 C36.8954305,36 36,36.8954305 36,38 L36,48 L24,48 L24,38 C23.9970996,37.9114826 23.9880781,37.823272 23.973,37.736 C24.6048084,37.3863826 24.9977991,36.7220868 25,36 L25,26 C25,24.8954305 24.1045695,24 23,24 L13,24 C11.8954305,24 11,24.8954305 11,26 L11,36 C11.0029004,36.0885174 11.0119219,36.176728 11.027,36.264 C10.3951916,36.6136174 10.0022009,37.2779132 10,38 L10,48 L8,48 L8,18 L29,18 L29,20 C29,20.5522847 29.4477153,21 30,21 C30.5522847,21 31,20.5522847 31,20 L31,18 L52,18 L52,48 L50,48 L50,38 C50,36.8954305 49.1045695,36 48,36 Z M39.325,27 L40.754,22 L45.245,22 L46.674,27 L39.325,27 Z M17,26 L19,26 L19,28.382 L18.447,28.105 C18.1655892,27.9643786 17.8344108,27.9643786 17.553,28.105 L17,28.382 L17,26 Z M15.475,30.851 C15.7699467,31.0316088 16.1369416,31.0482218 16.447,30.895 L18,30.118 L19.553,30.895 C19.8630616,31.0499383 20.2312442,31.0332634 20.5260309,30.8509316 C20.8208177,30.6685998 21.0001616,30.346618 21,30 L21,26 L23,26 L23,36 L13,36 L13,26 L15,26 L15,30 C15.0000355,30.346847 15.1797977,30.6689053 15.475,30.851 Z M16,38 L18,38 L18,40.382 L17.447,40.105 C17.1655892,39.9643786 16.8344108,39.9643786 16.553,40.105 L16,40.382 L16,38 Z M12,38 L14,38 L14,42 C13.9980979,42.3475069 14.1767435,42.6710847 14.4718336,42.8546237 C14.7669236,43.0381628 15.1361412,43.0553431 15.447,42.9 L17,42.118 L18.553,42.895 C18.8630616,43.0499383 19.2312442,43.0332634 19.5260309,42.8509316 C19.8208177,42.6685998 20.0001616,42.346618 20,42 L20,38 L22,38 L22,48 L12,48 L12,38 Z M8,16 L8,14 L52,14 L52,16 L8,16 Z M52,12 L8,12 L8,10 L52,10 L52,12 Z M52,8 L8,8 L8,6 L52,6 L52,8 Z M3,50 L57,50 C57.5522847,50 58,50.4477153 58,51 C58,51.5522847 57.5522847,52 57,52 L3,52 C2.44771525,52 2,51.5522847 2,51 C2,50.4477153 2.44771525,50 3,50 Z" id="Shape"/></g></g></svg>
