<?xml version="1.0" encoding="UTF-8"?>
<svg xmlns="http://www.w3.org/2000/svg" xmlns:xlink="http://www.w3.org/1999/xlink" width="512" height="512" viewBox="0 0 60 60" version="1.1"><!-- Generator: Sketch 51.3 (57544) - http://www.bohemiancoding.com/sketch --><title>026 - Packed Boxes</title><desc>Created with Sketch.</desc><defs/><g id="Page-1" stroke="none" stroke-width="1" fill="none" fill-rule="evenodd"><g id="026---Packed-Boxes" fill="#000000" fill-rule="nonzero"><path d="M56,0 L42,0 C41.5115022,0.000143410272 41.0946021,0.353197786 41.014,0.835 L38.014,18.835 C37.9654887,19.1249778 38.047044,19.421611 38.2369818,19.6460304 C38.4269197,19.8704498 38.7059924,19.9999137 39,20 L48,20 L48,54 L44,54 C42.3431458,54 41,55.3431458 41,57 L41,59 C41,59.5522847 41.4477153,60 42,60 L56,60 C56.5522847,60 57,59.5522847 57,59 L57,57 C57,55.3431458 55.6568542,54 54,54 L50,54 L50,20 L54,20 L54,25.184 C52.6224533,25.6710363 51.7961279,27.0796662 52.0432043,28.5197331 C52.2902807,29.9597999 53.5388911,31.0124271 55,31.0124271 C56.4611089,31.0124271 57.7097193,29.9597999 57.9567957,28.5197331 C58.2038721,27.0796662 57.3775467,25.6710363 56,25.184 L56,20 L59,20 C59.2940076,19.9999137 59.5730803,19.8704498 59.7630182,19.6460304 C59.952956,19.421611 60.0345113,19.1249778 59.986,18.835 L56.986,0.835 C56.9053979,0.353197786 56.4884978,0.000143410272 56,0 Z M55,57 L55,58 L43,58 L43,57 C43,56.4477153 43.4477153,56 44,56 L54,56 C54.5522847,56 55,56.4477153 55,57 Z M55,29 C54.4477153,29 54,28.5522847 54,28 C54,27.4477153 54.4477153,27 55,27 C55.5522847,27 56,27.4477153 56,28 C56,28.5522847 55.5522847,29 55,29 Z M40.181,18 L42.847,2 L55.153,2 L57.819,18 L40.181,18 Z" id="Shape"/><path d="M42.371,38.929 C42.7372878,38.7830877 42.9836468,38.4355663 43.0000609,38.0416275 C43.016475,37.6476888 42.7998799,37.2808776 42.447,37.105 C40.86362,36.4249819 39.0759197,36.3969536 37.472,37.027 C37.263,37.106 37.062,37.212 36.859,37.312 C36.5671275,32.5793447 37.2691832,27.8379994 38.92,23.393 C39.0807259,23.0170561 38.9964033,22.5811352 38.7070754,22.2922477 C38.4177475,22.0033601 37.9816987,21.9197016 37.606,22.081 C36.0201729,22.9431191 34.6742646,24.1869501 33.69,25.7 C33.1925003,24.6652843 32.1480919,24.0052492 31,24 L27.816,24 C27.9344378,23.679743 27.9966856,23.3414397 28,23 L28,3 C28,1.34314575 26.6568542,1.01453063e-16 25,0 L5,0 C3.34314575,-1.01453063e-16 2,1.34314575 2,3 L2,23 C2.00109731,23.3826652 2.07578739,23.7615475 2.22,24.116 C0.914787318,24.4674286 0.00578221319,25.6483163 0,27 L0,57 C2.02906125e-16,58.6568542 1.34314575,60 3,60 L36,60 C36.4752686,60.000097 36.8849463,59.6656663 36.98,59.2 L38.86,49.8 C39.5545676,49.4691946 39.9978222,48.7693189 40,48 L40,46 C39.9968473,45.2486495 39.5716118,44.5628606 38.9,44.226 C38.553,40.542 42.21,38.994 42.371,38.929 Z M38.141,38.913 C38.4863954,38.7772999 38.8460056,38.6810237 39.213,38.626 C37.6689848,39.976814 36.8132593,41.9496449 36.882,44 L33.536,44 C34.815,41.347 36.39,39.6 38.141,38.913 Z M13,26 L21.225,26 C21.754,26.7 22.365,27.567 23,28.583 L23,34.868 L18.641,31.232 C18.2698676,30.9220545 17.7301324,30.9220545 17.359,31.232 L13,34.865 L13,26 Z M24.327,25.859 C26.9914388,27.384335 29.0684919,29.7578082 30.227,32.601 C29.7115197,34.1145766 29.2831516,35.6564347 28.944,37.219 C27.7536467,32.8914669 25.7818754,28.8181223 23.126,25.2 C23.513,25.394 23.916,25.611 24.327,25.859 Z M25,32.234 C25.6766737,33.6574223 26.2495016,35.1279258 26.714,36.634 C26.169046,36.2352659 25.5768885,35.9054311 24.951,35.652 C24.9775542,35.5737443 24.9940204,35.4924216 25,35.41 L25,32.234 Z M27.642,40.634 C27.776,41.461 27.871,42.262 27.924,43.097 C27.95,43.381 27.969,43.681 27.982,44.004 L25.782,44.004 C24.8524965,41.0339238 22.7743263,38.5586258 20.01,37.129 C20.5023662,37.0458184 21.000664,37.0026772 21.5,37 C24.0637855,36.9710138 26.4309959,38.3700652 27.642,40.63 L27.642,40.634 Z M24,46 L38,46 L38,48 L24,48 L24,46 Z M35.965,26.053 C34.9128048,30.1457178 34.5745112,34.3892723 34.965,38.597 C33.3828479,40.1156926 32.1482369,41.95891 31.346,44 L29.982,44 C29.973,43.745 29.957,43.513 29.941,43.285 C29.9634264,43.2307051 29.9808325,43.1744702 29.993,43.117 C31.128,33.467 33.911,28.493 35.965,26.053 Z M32,27 L32,28.439 C31.738,28.9403333 31.4786667,29.4806667 31.222,30.06 C30.3507354,28.5295688 29.22766,27.1569963 27.9,26 L31,26 C31.5522847,26 32,26.4477153 32,27 Z M19,2 L19,9.234 L15.515,7.143 C15.1980675,6.9525869 14.8019325,6.9525869 14.485,7.143 L11,9.234 L11,2 L19,2 Z M4,3 C4,2.44771525 4.44771525,2 5,2 L9,2 L9,11 C9.00006853,11.3603432 9.19400017,11.6927828 9.50763986,11.8702014 C9.82127955,12.04762 10.2061174,12.0425768 10.515,11.857 L15,9.166 L19.485,11.857 C19.7938826,12.0425768 20.1787205,12.04762 20.4923601,11.8702014 C20.8059998,11.6927828 20.9999315,11.3603432 21,11 L21,2 L25,2 C25.5522847,2 26,2.44771525 26,3 L26,23 C25.9969566,23.5205613 25.5924197,23.9504091 25.073,23.985 C23.5543392,23.093284 21.9122818,22.4307999 20.2,22.019 C19.7683487,21.9343293 19.3320553,22.1416674 19.125102,22.5298198 C18.9181487,22.9179722 18.9891385,23.3957812 19.3,23.707 C19.3,23.707 19.4,23.807 19.577,24 L5,24 C4.44771525,24 4,23.5522847 4,23 L4,3 Z M2,57 L2,27 C2,26.4477153 2.44771525,26 3,26 L11,26 L11,37 C10.9998217,37.3882927 11.2244341,37.7415861 11.5761176,37.9061765 C11.927801,38.0707669 12.3429695,38.0168957 12.641,37.768 L18,33.3 L20.16,35.1 C18.9145491,35.2500867 17.6988687,35.5872138 16.554,36.1 C16.185135,36.2844955 15.9673746,36.6765233 16.0056519,37.087175 C16.0439292,37.4978267 16.3303916,37.8428552 16.727,37.956 C19.8924741,38.7308522 22.4842326,40.9951914 23.677,44.028 C22.7106137,44.186147 22.0008547,45.0207594 22,46 L22,48 C22.0021778,48.7693189 22.4454324,49.4691946 23.14,49.8 L24.78,58 L3,58 C2.44771525,58 2,57.5522847 2,57 Z M35.181,58 L26.819,58 L25.219,50 L36.78,50 L35.181,58 Z" id="Shape"/><path d="M6,44 L14,44 C14.5522847,44 15,43.5522847 15,43 C15,42.4477153 14.5522847,42 14,42 L6,42 C5.44771525,42 5,42.4477153 5,43 C5,43.5522847 5.44771525,44 6,44 Z" id="Shape"/><path d="M17,46 L6,46 C5.44771525,46 5,46.4477153 5,47 C5,47.5522847 5.44771525,48 6,48 L17,48 C17.5522847,48 18,47.5522847 18,47 C18,46.4477153 17.5522847,46 17,46 Z" id="Shape"/><path d="M14,50 L6,50 C5.44771525,50 5,50.4477153 5,51 C5,51.5522847 5.44771525,52 6,52 L14,52 C14.5522847,52 15,51.5522847 15,51 C15,50.4477153 14.5522847,50 14,50 Z" id="Shape"/><path d="M8,17 L14,17 C14.5522847,17 15,16.5522847 15,16 C15,15.4477153 14.5522847,15 14,15 L8,15 C7.44771525,15 7,15.4477153 7,16 C7,16.5522847 7.44771525,17 8,17 Z" id="Shape"/><path d="M8,21 L14,21 C14.5522847,21 15,20.5522847 15,20 C15,19.4477153 14.5522847,19 14,19 L8,19 C7.44771525,19 7,19.4477153 7,20 C7,20.5522847 7.44771525,21 8,21 Z" id="Shape"/></g></g></svg>
