<?xml version="1.0" encoding="UTF-8"?>
<svg xmlns="http://www.w3.org/2000/svg" xmlns:xlink="http://www.w3.org/1999/xlink" width="512" height="512" viewBox="0 0 60 52" version="1.1"><!-- Generator: Sketch 51.3 (57544) - http://www.bohemiancoding.com/sketch --><title>005 - Moving Van</title><desc>Created with Sketch.</desc><defs/><g id="Page-1" stroke="none" stroke-width="1" fill="none" fill-rule="evenodd"><g id="005---Moving-Van" fill="#000000" fill-rule="nonzero"><path d="M58,38.184 L58,29 C58,27.3431458 56.6568542,26 55,26 L51.72,26 L48.387,16 L51,16 C52.6568542,16 54,14.6568542 54,13 L54,3 C54,1.34314575 52.6568542,0 51,0 L5,0 C3.34314575,0 2,1.34314575 2,3 L2,38.184 C0.623452518,38.6688523 -0.202693696,40.0758441 0.044612677,41.514178 C0.29191905,42.9525119 1.54056274,44.0027654 3,44 L6.08,44 C5.73912512,46.2112506 6.49655543,48.4499608 8.11,50 L6,50 C5.44771525,50 5,50.4477153 5,51 C5,51.5522847 5.44771525,52 6,52 L13,52 C15.0354987,52.0152736 16.9753117,51.1371661 18.3069936,49.5976495 C19.6386755,48.0581328 20.2282618,46.0120792 19.92,44 L39.08,44 C38.7391251,46.2112506 39.4965554,48.4499608 41.11,50 L39,50 C38.4477153,50 38,50.4477153 38,51 C38,51.5522847 38.4477153,52 39,52 L46,52 C48.0354987,52.0152736 49.9753117,51.1371661 51.3069936,49.5976495 C52.6386755,48.0581328 53.2282618,46.0120792 52.92,44 L57,44 C58.4594373,44.0027654 59.7080809,42.9525119 59.9553873,41.514178 C60.2026937,40.0758441 59.3765475,38.6688523 58,38.184 Z M47,38 C46.9235056,38.0062014 46.8479954,38.0213034 46.775,38.045 C46.5176825,38.0158558 46.2589613,38.0008333 46,38 C43.5391101,38.0039073 41.2610288,39.2997559 40,41.413 L40,28 L52,28 L52,30 C52,31.1045695 52.8954305,32 54,32 L56,32 L56,38 L47,38 Z M55,28 C55.5522847,28 56,28.4477153 56,29 L56,30 L54,30 L54,28 L55,28 Z M49.612,26 L40,26 L40,17 C40,16.4477153 40.4477153,16 41,16 L46.279,16 L49.612,26 Z M3,42 C2.44771525,42 2,41.5522847 2,41 C2,40.4477153 2.44771525,40 3,40 L8.11,40 C7.52138413,40.5779374 7.03903255,41.254922 6.685,42 L3,42 Z M13,50 C10.2385763,50 8,47.7614237 8,45 C8,42.2385763 10.2385763,40 13,40 C15.7614237,40 18,42.2385763 18,45 C17.9966939,47.7600532 15.7600532,49.9966939 13,50 Z M13,38 L4,38 L4,3 C4,2.44771525 4.44771525,2 5,2 L51,2 C51.5522847,2 52,2.44771525 52,3 L52,13 C52,13.5522847 51.5522847,14 51,14 L41,14 C39.3431458,14 38,15.3431458 38,17 L38,42 L19.315,42 C18.1577219,39.560237 15.700319,38.0036873 13,38 Z M46,50 C43.2385763,50 41,47.7614237 41,45 C41,42.2385763 43.2385763,40 46,40 C48.7614237,40 51,42.2385763 51,45 C50.9966939,47.7600532 48.7600532,49.9966939 46,50 Z M57,42 L52.315,42 C51.9609735,41.2546654 51.4782436,40.5776249 50.889,40 L57,40 C57.5522847,40 58,40.4477153 58,41 C58,41.5522847 57.5522847,42 57,42 Z" id="Shape"/><path d="M13,42 C11.3431458,42 10,43.3431458 10,45 C10,46.6568542 11.3431458,48 13,48 C14.6568542,48 16,46.6568542 16,45 C16,43.3431458 14.6568542,42 13,42 Z M13,46 C12.4477153,46 12,45.5522847 12,45 C12,44.4477153 12.4477153,44 13,44 C13.5522847,44 14,44.4477153 14,45 C14,45.5522847 13.5522847,46 13,46 Z" id="Shape"/><path d="M46,42 C44.3431458,42 43,43.3431458 43,45 C43,46.6568542 44.3431458,48 46,48 C47.6568542,48 49,46.6568542 49,45 C49,43.3431458 47.6568542,42 46,42 Z M46,46 C45.4477153,46 45,45.5522847 45,45 C45,44.4477153 45.4477153,44 46,44 C46.5522847,44 47,44.4477153 47,45 C47,45.5522847 46.5522847,46 46,46 Z" id="Shape"/><path d="M43,21 C43.2651948,20.9999434 43.5195073,20.8945494 43.707,20.707 L44.707,19.707 C45.0859722,19.3146211 45.0805524,18.6909152 44.6948186,18.3051814 C44.3090848,17.9194476 43.6853789,17.9140278 43.293,18.293 L42.293,19.293 C42.0070921,19.5789943 41.9215781,20.0090366 42.076322,20.3826546 C42.2310659,20.7562725 42.5956041,20.9999137 43,21 Z" id="Shape"/><path d="M43.293,24.707 C43.6834999,25.0973819 44.3165001,25.0973819 44.707,24.707 L46.707,22.707 C47.0859722,22.3146211 47.0805524,21.6909152 46.6948186,21.3051814 C46.3090848,20.9194476 45.6853789,20.9140278 45.293,21.293 L43.293,23.293 C42.9026181,23.6834999 42.9026181,24.3165001 43.293,24.707 Z" id="Shape"/><path d="M34.569,15.178 L21.569,6.178 C21.2266485,5.9411167 20.7733515,5.9411167 20.431,6.178 L7.431,15.178 C7.16117798,15.3646979 7.00011076,15.6718841 7,16 L7,21 C7.00012549,21.3718381 7.20655605,21.7129019 7.53592966,21.8854609 C7.86530328,22.0580199 8.26322357,22.0335759 8.569,21.822 L10,20.832 L10,33 C10,34.1045695 10.8954305,35 12,35 L30,35 C31.1045695,35 32,34.1045695 32,33 L32,20.832 L33.431,21.822 C33.7367764,22.0335759 34.1346967,22.0580199 34.4640703,21.8854609 C34.793444,21.7129019 34.9998745,21.3718381 35,21 L35,16 C34.9998892,15.6718841 34.838822,15.3646979 34.569,15.178 Z M18,33 L18,23 L24,23 L24,33 L18,33 Z M30,33 L26,33 L26,23 C26,21.8954305 25.1045695,21 24,21 L18,21 C16.8954305,21 16,21.8954305 16,23 L16,33 L12,33 L12,19.447 L21,13.216 L30,19.447 L30,33 Z M33,19.091 L21.569,11.178 C21.2266485,10.9411167 20.7733515,10.9411167 20.431,11.178 L9,19.091 L9,16.524 L21,8.216 L33,16.524 L33,19.091 Z" id="Shape"/><path d="M40,6 L49,6 C49.5522847,6 50,5.55228475 50,5 C50,4.44771525 49.5522847,4 49,4 L40,4 C39.4477153,4 39,4.44771525 39,5 C39,5.55228475 39.4477153,6 40,6 Z" id="Shape"/><path d="M36,4 L35,4 C34.4477153,4 34,4.44771525 34,5 C34,5.55228475 34.4477153,6 35,6 L36,6 C36.5522847,6 37,5.55228475 37,5 C37,4.44771525 36.5522847,4 36,4 Z" id="Shape"/><path d="M2,52 C2.55228475,52 3,51.5522847 3,51 C3,50.4477153 2.55228475,50 2,50 L1,50 C0.44771525,50 6.76353751e-17,50.4477153 0,51 C-6.76353751e-17,51.5522847 0.44771525,52 1,52 L2,52 Z" id="Shape"/><path d="M35,52 C35.5522847,52 36,51.5522847 36,51 C36,50.4477153 35.5522847,50 35,50 L34,50 C33.4477153,50 33,50.4477153 33,51 C33,51.5522847 33.4477153,52 34,52 L35,52 Z" id="Shape"/></g></g></svg>
