<?xml version="1.0" encoding="UTF-8"?>
<svg xmlns="http://www.w3.org/2000/svg" xmlns:xlink="http://www.w3.org/1999/xlink" width="512" height="512" viewBox="0 0 56 60" version="1.1"><!-- Generator: Sketch 51.3 (57544) - http://www.bohemiancoding.com/sketch --><title>018 - Packing</title><desc>Created with Sketch.</desc><defs/><g id="Page-1" stroke="none" stroke-width="1" fill="none" fill-rule="evenodd"><g id="018---Packing" fill="#000000" fill-rule="nonzero"><path d="M0.087,41.407 C0.213751085,41.6916056 0.465909094,41.9008746 0.769,41.973 L6,43.218 L6,53.21 C5.99764076,54.1371013 6.63457237,54.9435222 7.537,55.156 L27.769,59.973 C27.9208889,60.0090617 28.0791111,60.0090617 28.231,59.973 L48.464,55.156 C49.3660302,54.9431255 50.002468,54.1368052 50,53.21 L50,43.218 L55.231,41.973 C55.5343166,41.9010475 55.7867282,41.6917606 55.9136082,41.4070159 C56.0404883,41.1222711 56.0273213,40.7946445 55.878,40.521 L50.139,30 L55.878,19.479 C56.0273213,19.2053555 56.0404883,18.8777289 55.9136082,18.5929841 C55.7867282,18.3082394 55.5343166,18.0989525 55.231,18.027 L37.787,13.871 L31.914,1.161 C31.5358659,0.346623062 30.6624124,-0.117067161 29.776,0.026 L15.486,2.359 C14.6006309,2.50622321 13.9204807,3.22311616 13.82,4.115 L12.605,15.215 L0.769,18.027 C0.465683389,18.0989525 0.21327184,18.3082394 0.0863917705,18.5929841 C-0.0404882991,18.8777289 -0.0273212614,19.2053555 0.122,19.479 L5.861,30 L0.122,40.521 C-0.0271202329,40.7947362 -0.0400622339,41.1223537 0.087,41.407 Z M8,43.694 L21.769,46.973 C21.8447065,46.9908474 21.9222183,46.9999072 22,47 C22.3659502,47.0000677 22.7027099,46.8002365 22.878,46.479 L27,38.922 L27,57.734 L24,57.02 L24,53 C24,52.4477153 23.5522847,52 23,52 C22.4477153,52 22,52.4477153 22,53 L22,56.544 L20,56.067 L20,54 C20,53.4477153 19.5522847,53 19,53 C18.4477153,53 18,53.4477153 18,54 L18,55.591 L16,55.115 L16,51 C16,50.4477153 15.5522847,50 15,50 C14.4477153,50 14,50.4477153 14,51 L14,54.639 L12,54.162 L12,52 C12,51.4477153 11.5522847,51 11,51 C10.4477153,51 10,51.4477153 10,52 L10,53.686 L8,53.21 L8,43.694 Z M15.042,29.115 C15.1618875,29.7589585 15.3341258,30.3920596 15.557,31.008 L11.323,30 L15.042,29.115 Z M18.021,31.595 C17.4906682,30.621476 17.1276179,29.5657906 16.947,28.472 C16.911,28.248 16.885,28.024 16.866,27.798 C16.6850591,25.8710694 17.0671772,23.9330358 17.966,22.219 L20.695,21.774 C19.7978164,23.7911786 19.5615512,26.040423 20.02,28.2 C20.1150537,28.6656663 20.5247314,29.000097 21,29 C21.0671307,29.0002896 21.1341248,28.9939252 21.2,28.981 C21.7414488,28.8729291 22.0928546,28.346492 21.985,27.805 C21.493905,25.5808399 21.9367089,23.2525953 23.21,21.364 L33.744,19.644 C35.3077234,21.1391857 36.3439635,23.1014799 36.697,25.236 C36.8076157,25.9170925 36.8508246,26.6074302 36.826,27.297 C36.7424113,29.0618042 36.1901373,30.7724729 35.226,32.253 L28,33.972 L18.021,31.595 Z M38.7,28.577 L44.683,30 L37.831,31.632 C38.2562402,30.6572028 38.5485237,29.6296698 38.7,28.577 Z M48,53.21 L46,53.687 L46,52 C46,51.4477153 45.5522847,51 45,51 C44.4477153,51 44,51.4477153 44,52 L44,54.163 L42,54.639 L42,51 C42,50.4477153 41.5522847,50 41,50 C40.4477153,50 40,50.4477153 40,51 L40,55.115 L38,55.591 L38,54 C38,53.4477153 37.5522847,53 37,53 C36.4477153,53 36,53.4477153 36,54 L36,56.068 L34,56.544 L34,53 C34,52.4477153 33.5522847,52 33,52 C32.4477153,52 32,52.4477153 32,53 L32,57.02 L29,57.734 L29,38.922 L33.122,46.479 C33.2972901,46.8002365 33.6340498,47.0000677 34,47 C34.0777786,46.9998542 34.1552843,46.9907951 34.231,46.973 L48,43.694 L48,53.21 Z M34.512,44.85 L29.5,35.67 L48.484,31.15 L53.5,40.33 L34.512,44.85 Z M53.5,19.669 L48.488,28.85 L38.809,26.55 C38.7962398,26.0044995 38.7484749,25.4603807 38.666,24.921 C38.3241873,22.8428043 37.4428139,20.8907485 36.11,19.26 L37.386,19.052 C38.0028586,18.9512332 38.5371385,18.5678763 38.8301615,18.0157839 C39.1231846,17.4636916 39.1412528,16.8063552 38.879,16.239 L38.853,16.184 L53.5,19.669 Z M15.809,4.333 L30.1,2 L37.066,17.075 L14,20.84 L15.809,4.333 Z M12.374,17.321 L12.012,20.621 C11.9504634,21.1847838 12.1311761,21.7481849 12.5091641,22.1709898 C12.887152,22.5937947 13.4268706,22.8362442 13.994,22.838 C14.1038865,22.8379542 14.2135852,22.8289241 14.322,22.811 L15.598,22.603 C15.0541814,24.0395348 14.7920762,25.5673503 14.826,27.103 L7.512,28.85 L2.505,19.67 L12.374,17.321 Z M7.512,31.15 L26.5,35.67 L21.493,44.85 L2.505,40.33 L7.512,31.15 Z" id="Shape"/></g></g></svg>
