<?xml version="1.0" encoding="UTF-8"?>
<svg xmlns="http://www.w3.org/2000/svg" xmlns:xlink="http://www.w3.org/1999/xlink" width="512" height="512" viewBox="0 0 60 60" version="1.1"><!-- Generator: Sketch 51.3 (57544) - http://www.bohemiancoding.com/sketch --><title>017 - Checklist</title><desc>Created with Sketch.</desc><defs/><g id="Page-1" stroke="none" stroke-width="1" fill="none" fill-rule="evenodd"><g id="017---Checklist" fill="#000000" fill-rule="nonzero"><path d="M57,0 L31,0 C29.3431458,-1.01453063e-16 28,1.34314575 28,3 L28,7 L27,7 C26.4477153,7 26,6.55228475 26,6 L26,5 C26,2.790861 24.209139,1 22,1 L18,1 C15.790861,1 14,2.790861 14,5 L14,6 C14,6.55228475 13.5522847,7 13,7 L10,7 C8.8954305,7 8,7.8954305 8,9 L8,10 L2,10 C0.8954305,10 1.3527075e-16,10.8954305 0,12 L0,58 C1.3527075e-16,59.1045695 0.8954305,60 2,60 L38,60 C39.1045695,60 40,59.1045695 40,58 L40,30 L57,30 C58.6568542,30 60,28.6568542 60,27 L60,3 C60,1.34314575 58.6568542,1.01453063e-16 57,0 Z M49,2 L49,11.382 L44.447,9.105 C44.1655892,8.96437861 43.8344108,8.96437861 43.553,9.105 L39.739,11.013 C39.729,10.995 39.713,10.982 39.702,10.964 C39.6254877,10.8348524 39.5342072,10.7150467 39.43,10.607 L39.416,10.589 C39.3029929,10.4787414 39.1774729,10.3820842 39.042,10.301 C39.027,10.292 39.016,10.278 39,10.269 L39,2 L49,2 Z M30,3 C30,2.44771525 30.4477153,2 31,2 L37,2 L37,10 L32,10 L32,9 C32,7.8954305 31.1045695,7 30,7 L30,3 Z M34,47 L31.722,47 C31.9020294,46.6973555 31.9980002,46.3521367 32,46 L32,42 C32,40.8954305 31.1045695,40 30,40 L26,40 C24.8954305,40 24,40.8954305 24,42 L24,46 C24,47.1045695 24.8954305,48 26,48 L27,48 L27,54 L6,54 L6,16 L8.278,16 C8.63241258,16.6167513 9.28867322,16.997855 10,17 L30,17 C30.7113268,16.997855 31.3675874,16.6167513 31.722,16 L34,16 L34,47 Z M30,46 L26,46 L26,42 L30,42 L30,46 Z M29,49 L32.586,49 L29,52.586 L29,49 Z M10,9 L13,9 C14.6568542,9 16,7.65685425 16,6 L16,5 C16,3.8954305 16.8954305,3 18,3 L22,3 C23.1045695,3 24,3.8954305 24,5 L24,6 C24,7.65685425 25.3431458,9 27,9 L30,9 L30,15 L10,15 L10,9 Z M38,58 L2,58 L2,12 L8,12 L8,14 L6,14 C4.8954305,14 4,14.8954305 4,16 L4,54 C4,55.1045695 4.8954305,56 6,56 L28,56 C28.1314586,55.9994781 28.2615536,55.9733232 28.383,55.923 C28.5045501,55.8727441 28.6149919,55.799003 28.708,55.706 L35.708,48.706 C35.7874188,48.6233132 35.8520269,48.5275849 35.899,48.423 C35.9116399,48.3922667 35.9226551,48.3608901 35.932,48.329 C35.9620055,48.2431996 35.9801728,48.1537088 35.986,48.063 C35.986,48.042 35.998,48.024 35.998,48.003 L35.998,16 C35.998,14.8954305 35.1025695,14 33.998,14 L32,14 L32,12 L38,12 L38,58 Z M58,27 C58,27.5522847 57.5522847,28 57,28 L40,28 L40,13.118 L44,11.118 L49.553,13.9 C49.8638588,14.0553431 50.2330764,14.0381628 50.5281664,13.8546237 C50.8232565,13.6710847 51.0019021,13.3475069 51,13 L51,2 L57,2 C57.5522847,2 58,2.44771525 58,3 L58,27 Z" id="Shape"/><path d="M16,23 L9,23 C8.44771525,23 8,23.4477153 8,24 C8,24.5522847 8.44771525,25 9,25 L16,25 C16.5522847,25 17,24.5522847 17,24 C17,23.4477153 16.5522847,23 16,23 Z" id="Shape"/><path d="M21,23 L20,23 C19.4477153,23 19,23.4477153 19,24 C19,24.5522847 19.4477153,25 20,25 L21,25 C21.5522847,25 22,24.5522847 22,24 C22,23.4477153 21.5522847,23 21,23 Z" id="Shape"/><path d="M30,30 L26,30 C24.8954305,30 24,30.8954305 24,32 L24,36 C24,37.1045695 24.8954305,38 26,38 L30,38 C31.1045695,38 32,37.1045695 32,36 L32,32 C32,30.8954305 31.1045695,30 30,30 Z M30,36 L26,36 L26,32 L30,32 L30,36 Z" id="Shape"/><path d="M16,33 L9,33 C8.44771525,33 8,33.4477153 8,34 C8,34.5522847 8.44771525,35 9,35 L16,35 C16.5522847,35 17,34.5522847 17,34 C17,33.4477153 16.5522847,33 16,33 Z" id="Shape"/><path d="M21,33 L20,33 C19.4477153,33 19,33.4477153 19,34 C19,34.5522847 19.4477153,35 20,35 L21,35 C21.5522847,35 22,34.5522847 22,34 C22,33.4477153 21.5522847,33 21,33 Z" id="Shape"/><path d="M16,43 L9,43 C8.44771525,43 8,43.4477153 8,44 C8,44.5522847 8.44771525,45 9,45 L16,45 C16.5522847,45 17,44.5522847 17,44 C17,43.4477153 16.5522847,43 16,43 Z" id="Shape"/><path d="M21,43 L20,43 C19.4477153,43 19,43.4477153 19,44 C19,44.5522847 19.4477153,45 20,45 L21,45 C21.5522847,45 22,44.5522847 22,44 C22,43.4477153 21.5522847,43 21,43 Z" id="Shape"/><path d="M31.417,20.583 C31.405,20.571 31.39,20.568 31.378,20.557 C31.0079027,20.2002386 30.5140529,20.00062 30,20 L26,20 C24.8954305,20 24,20.8954305 24,22 L24,26 C24.00062,26.5140529 24.2002386,27.0079027 24.557,27.378 C24.568,27.39 24.571,27.405 24.583,27.417 C24.595,27.429 24.61,27.432 24.622,27.443 C24.9920973,27.7997614 25.4859471,27.99938 26,28 L30,28 C31.1045695,28 32,27.1045695 32,26 L32,22 C31.99938,21.4859471 31.7997614,20.9920973 31.443,20.622 C31.432,20.61 31.429,20.6 31.417,20.583 Z M28.586,22 L26,24.586 L26,22 L28.586,22 Z M27.414,26 L30,23.414 L30,26 L27.414,26 Z" id="Shape"/></g></g></svg>
