<svg id="Layer_3" enable-background="new 0 0 64 64" height="512" viewBox="0 0 64 64" width="512" xmlns="http://www.w3.org/2000/svg"><path d="m60 49c.553 0 1-.447 1-1v-3h1c.553 0 1-.447 1-1v-12c0-.553-.447-1-1-1h-1v-3c0-.553-.447-1-1-1h-1.434l-11.003-18.339 2.958-1.808c.443-.271.605-.836.373-1.301l-2-4c-.126-.251-.352-.438-.622-.515-.269-.077-.559-.036-.799.111l-41.758 25.852h-1.715c-.553 0-1 .447-1 1v3h-1c-.553 0-1 .447-1 1v12c0 .553.447 1 1 1h1v3c0 .553.447 1 1 1h1.069l.857 12h-4.926v2h62v-2h-4.926l.857-12zm-1-2h-6v-2h6zm-47 2c.553 0 1-.447 1-1v-3h16v10h-2v2h10v-2h-2v-10h16v3c0 .553.447 1 1 1h1.069l.857 12h-43.852l.857-12zm-9-10h2v4h-2zm4 0h2v4h-2zm48 4v-4h2v4zm-2 0h-2v-4h2zm-4 0h-2v-4h2zm-4 0h-2v-4h2zm-4 0h-2v-4h2zm-4 0h-2v-4h2zm-6 12v-10h2v10zm2-12h-2v-4h2zm-4 0h-2v-4h2zm-4 0h-2v-4h2zm-4 0h-2v-4h2zm-4 0h-2v-4h2zm-4 0h-2v-4h2zm46 0v-4h2v4zm-2.766-16h-38.679l28.301-17.296zm-8.638-23.573 1.099 2.199-34.977 21.374h-4.202zm-42.596 25.573h54v2h-54zm56 4v4h-58v-4zm-56 12h6v2h-6zm2.074 4h1.853l-.858 12h-.138zm48.995 12h-.139l-.857-12h1.853z"/><path d="m4 22c1.654 0 3-1.346 3-3v-5h4v-2h-5c-.553 0-1 .447-1 1v3.184c-.314-.112-.648-.184-1-.184-1.654 0-3 1.346-3 3s1.346 3 3 3zm0-4c.552 0 1 .448 1 1s-.448 1-1 1-1-.448-1-1 .448-1 1-1z"/><path d="m18 11c1.654 0 3-1.346 3-3v-5h4v-2h-5c-.553 0-1 .447-1 1v3.184c-.314-.112-.648-.184-1-.184-1.654 0-3 1.346-3 3s1.346 3 3 3zm0-4c.552 0 1 .448 1 1s-.448 1-1 1-1-.448-1-1 .448-1 1-1z"/></svg>